<?xml version="1.0" encoding="UTF-8"?>
<svg id="Layer_1" xmlns="http://www.w3.org/2000/svg" version="1.1" viewBox="0 0 500 500">
  <!-- Generator: Adobe Illustrator 30.0.0, SVG Export Plug-In . SVG Version: 2.1.1 Build 123)  -->
  <defs>
    <style>
      .st0, .st1, .st2, .st3, .st4, .st5, .st6, .st7, .st8 {
        stroke: #263238;
        stroke-linecap: round;
        stroke-linejoin: round;
      }

      .st0, .st9 {
        fill: #fff;
      }

      .st10, .st7 {
        fill: #263238;
      }

      .st11, .st8 {
        fill: #407bff;
      }

      .st1 {
        stroke-width: .5px;
      }

      .st1, .st2, .st3, .st4, .st5, .st6 {
        fill: none;
      }

      .st2 {
        stroke-width: 2px;
      }

      .st9 {
        isolation: isolate;
        opacity: .7;
      }

      .st3 {
        stroke-width: 5px;
      }

      .st4 {
        stroke-width: 1px;
      }

      .st6 {
        stroke-width: 10px;
      }
    </style>
  </defs>
  <g id="freepik--background-simple--inject-21">
    <path class="st11" d="M459.73,242.73c.44-20.19-.46-40.19-11.08-58-16.8-28.21-46.72-46.36-78.15-53.85-24.74-5.9-50.53,1.19-73.63,10.09-10.95,4.23-20.77,10.11-32.73,10.19-13.1.1-25.72-4.78-37.7-9.58-30.17-12.09-65.58-18.07-97.83-10.11-16.01,3.95-31.89,12.1-43.14,24.78-13.14,14.81-16.54,33.66-20.66,52.41-5.42,24.55-26.52,42.95-39.78,63.28-14.67,22.49-4.87,52.89,14.03,69.52,63.93,56.29,146.04-17.76,216.6-5.91,36.49,6.15,71.45,20.06,108.45,23.38,21.45,1.93,44.84,1.56,65.42-6.57,13.21-5.2,26.32-13.85,31.2-27.85,4.42-12.69.27-25.86-.98-38.7-1.35-14.01-.35-28.6-.02-43.09h0Z"/>
    <path class="st9" d="M459.73,242.73c.44-20.19-.46-40.19-11.08-58-16.8-28.21-46.72-46.36-78.15-53.85-24.74-5.9-50.53,1.19-73.63,10.09-10.95,4.23-20.77,10.11-32.73,10.19-13.1.1-25.72-4.78-37.7-9.58-30.17-12.09-65.58-18.07-97.83-10.11-16.01,3.95-31.89,12.1-43.14,24.78-13.14,14.81-16.54,33.66-20.66,52.41-5.42,24.55-26.52,42.95-39.78,63.28-14.67,22.49-4.87,52.89,14.03,69.52,63.93,56.29,146.04-17.76,216.6-5.91,36.49,6.15,71.45,20.06,108.45,23.38,21.45,1.93,44.84,1.56,65.42-6.57,13.21-5.2,26.32-13.85,31.2-27.85,4.42-12.69.27-25.86-.98-38.7-1.35-14.01-.35-28.6-.02-43.09h0Z"/>
  </g>
  <g id="freepik--Plants--inject-21">
    <line class="st2" x1="14.81" y1="242.24" x2="24.68" y2="336.8"/>
    <line class="st2" x1="23.09" y1="318.7" x2="18.62" y2="313.98"/>
    <path class="st0" d="M19.97,315.39c-.02-1.46-.66-2.84-1.78-3.79-1.15-1.02-7.19-3.57-7.76-1.41-.63,2.28,5.55,6.83,9.53,5.2Z"/>
    <line class="st1" x1="19.97" y1="315.39" x2="14.22" y2="311.81"/>
    <line class="st2" x1="24.21" y1="329.45" x2="19.74" y2="324.72"/>
    <path class="st0" d="M21.1,326.14c-.01-1.46-.66-2.85-1.78-3.79-1.15-1.02-7.19-3.57-7.76-1.41-.63,2.28,5.56,6.83,9.53,5.2Z"/>
    <line class="st1" x1="21.1" y1="326.14" x2="15.35" y2="322.56"/>
    <line class="st2" x1="20.35" y1="292.46" x2="15.88" y2="287.73"/>
    <path class="st0" d="M17.24,289.15c-.02-1.46-.67-2.85-1.78-3.79-1.14-1.02-7.19-3.57-7.76-1.41-.61,2.28,5.56,6.83,9.54,5.2Z"/>
    <line class="st1" x1="17.24" y1="289.15" x2="11.48" y2="285.57"/>
    <line class="st2" x1="21.48" y1="303.21" x2="17" y2="298.49"/>
    <path class="st0" d="M18.37,299.9c-.02-1.46-.66-2.84-1.78-3.79-1.15-1.02-7.19-3.57-7.76-1.41-.64,2.28,5.54,6.83,9.53,5.2Z"/>
    <line class="st1" x1="18.36" y1="299.9" x2="12.61" y2="296.32"/>
    <line class="st2" x1="18.53" y1="274.99" x2="14.06" y2="270.26"/>
    <path class="st0" d="M15.41,271.68c-.01-1.46-.66-2.85-1.78-3.79-1.15-1.02-7.19-3.57-7.76-1.41-.63,2.28,5.56,6.83,9.53,5.2Z"/>
    <line class="st1" x1="15.41" y1="271.68" x2="9.66" y2="268.1"/>
    <line class="st2" x1="16.7" y1="257.44" x2="12.22" y2="252.72"/>
    <path class="st0" d="M13.59,254.14c-.03-1.45-.68-2.83-1.78-3.77-1.15-1.02-7.19-3.57-7.76-1.41-.63,2.26,5.56,6.81,9.54,5.18Z"/>
    <line class="st1" x1="13.59" y1="254.14" x2="7.83" y2="250.55"/>
    <line class="st2" x1="22.34" y1="312.33" x2="25.74" y2="306.79"/>
    <path class="st0" d="M24.71,308.46c-.28-1.44.07-2.92.96-4.08.92-1.24,6.3-4.94,7.31-3.01,1.07,2.14-4.03,7.86-8.26,7.09Z"/>
    <line class="st1" x1="24.7" y1="308.46" x2="29.88" y2="303.51"/>
    <line class="st2" x1="19.38" y1="284.04" x2="22.79" y2="278.49"/>
    <path class="st0" d="M21.75,280.16c-.28-1.43.06-2.92.96-4.08.91-1.24,6.3-4.98,7.3-3.02,1.09,2.14-4.03,7.86-8.26,7.09Z"/>
    <line class="st1" x1="21.75" y1="280.16" x2="26.93" y2="275.21"/>
    <line class="st2" x1="18.08" y1="271.6" x2="21.49" y2="266.05"/>
    <path class="st0" d="M20.48,267.73c-.28-1.44.06-2.93.96-4.08.91-1.24,6.3-4.98,7.3-3.01,1.06,2.14-4.03,7.86-8.26,7.09Z"/>
    <line class="st1" x1="20.45" y1="267.73" x2="25.63" y2="262.78"/>
    <line class="st2" x1="16.19" y1="253.38" x2="19.59" y2="247.83"/>
    <path class="st0" d="M18.55,249.49c-.28-1.43.07-2.91.96-4.06.91-1.24,6.3-4.98,7.3-3.01,1.09,2.12-4.03,7.84-8.26,7.07Z"/>
    <line class="st1" x1="18.55" y1="249.49" x2="23.73" y2="244.54"/>
    <path class="st0" d="M14.73,241.72c-.28-1.42.08-2.9.96-4.05.92-1.24,6.3-4.94,7.31-3.01,1.09,2.1-4.03,7.83-8.26,7.06h0Z"/>
    <line class="st1" x1="14.73" y1="241.72" x2="19.91" y2="236.77"/>
    <path class="st0" d="M15.03,241.9c-1.46.13-2.91-.39-3.96-1.41-1.14-1.04-4.29-6.78-2.23-7.57,2.24-.8,7.4,4.88,6.18,8.98Z"/>
    <line class="st1" x1="15.03" y1="241.93" x2="10.65" y2="236.26"/>
    <line class="st2" x1="40.84" y1="255.26" x2="31.02" y2="349.82"/>
    <line class="st2" x1="33.2" y1="331.78" x2="29.79" y2="326.24"/>
    <path class="st0" d="M30.83,327.93c.28-1.43-.07-2.92-.97-4.08-.91-1.24-6.3-4.97-7.3-3.01-1.09,2.11,4.03,7.83,8.26,7.09Z"/>
    <line class="st1" x1="30.83" y1="327.9" x2="25.94" y2="323.22"/>
    <line class="st2" x1="35.92" y1="305.54" x2="32.51" y2="300"/>
    <path class="st0" d="M33.56,301.67c.27-1.42-.08-2.91-.97-4.05-.91-1.23-6.3-4.94-7.3-3-1.09,2.11,4.03,7.83,8.26,7.06Z"/>
    <line class="st1" x1="33.56" y1="301.67" x2="28.66" y2="296.98"/>
    <line class="st2" x1="34.8" y1="316.3" x2="31.4" y2="310.76"/>
    <path class="st0" d="M32.47,312.42c.28-1.44-.06-2.93-.96-4.08-.91-1.23-6.3-4.94-7.3-3-1.12,2.15,4.03,7.86,8.26,7.09h0Z"/>
    <line class="st1" x1="32.43" y1="312.42" x2="27.55" y2="307.73"/>
    <line class="st2" x1="37.73" y1="288.08" x2="34.32" y2="282.53"/>
    <path class="st0" d="M35.37,284.21c.28-1.44-.07-2.93-.97-4.08-.91-1.24-6.3-4.97-7.3-3-1.09,2.15,4.03,7.84,8.26,7.09h0Z"/>
    <line class="st1" x1="35.37" y1="284.2" x2="30.47" y2="279.5"/>
    <line class="st2" x1="39.55" y1="270.53" x2="36.15" y2="264.99"/>
    <path class="st0" d="M37.19,266.65c.28-1.44-.06-2.93-.96-4.08-.92-1.24-6.3-4.97-7.31-3-1.09,2.14,4.03,7.86,8.26,7.09h0Z"/>
    <line class="st1" x1="37.19" y1="266.65" x2="32.29" y2="261.96"/>
    <line class="st2" x1="33.77" y1="325.41" x2="38.24" y2="320.68"/>
    <path class="st0" d="M36.88,322.09c.02-1.46.66-2.84,1.78-3.79,1.15-1.03,7.19-3.58,7.76-1.41.63,2.28-5.55,6.81-9.53,5.2Z"/>
    <line class="st1" x1="36.88" y1="322.09" x2="42.97" y2="318.31"/>
    <line class="st2" x1="36.71" y1="297.11" x2="41.18" y2="292.38"/>
    <path class="st0" d="M39.82,293.8c.02-1.46.66-2.84,1.78-3.79,1.15-1.03,7.19-3.58,7.76-1.41.63,2.28-5.55,6.83-9.53,5.2Z"/>
    <line class="st1" x1="39.82" y1="293.8" x2="45.91" y2="290.02"/>
    <line class="st2" x1="38" y1="284.67" x2="42.47" y2="279.95"/>
    <path class="st0" d="M41.11,281.39c.02-1.46.66-2.84,1.78-3.79,1.15-1.02,7.19-3.57,7.76-1.45.63,2.28-5.55,6.83-9.53,5.24Z"/>
    <line class="st1" x1="41.11" y1="281.36" x2="47.2" y2="277.58"/>
    <line class="st2" x1="39.89" y1="266.44" x2="44.36" y2="261.71"/>
    <path class="st0" d="M43.01,263.13c.01-1.46.66-2.85,1.78-3.79,1.14-1.03,7.19-3.58,7.76-1.45.63,2.35-5.55,6.86-9.53,5.24Z"/>
    <line class="st1" x1="43.01" y1="263.13" x2="49.09" y2="259.35"/>
    <path class="st0" d="M40.87,254.74c.01-1.47.66-2.85,1.78-3.8,1.15-1.02,7.19-3.57,7.76-1.41.63,2.28-5.55,6.83-9.53,5.21Z"/>
    <line class="st1" x1="40.87" y1="254.74" x2="46.95" y2="250.96"/>
    <path class="st0" d="M41.12,255c-1.45-.17-2.76-.96-3.59-2.16-.9-1.25-2.82-7.52-.62-7.88,2.37-.37,6.24,6.25,4.21,10.04h0Z"/>
    <line class="st1" x1="41.12" y1="255" x2="38" y2="248.55"/>
    <line class="st2" x1="29.59" y1="216.76" x2="29.59" y2="336.33"/>
    <line class="st2" x1="29.69" y1="318.36" x2="25.73" y2="313.19"/>
    <path class="st0" d="M26.93,314.74c.13-1.45-.37-2.9-1.38-3.96-1.04-1.14-6.78-4.29-7.57-2.24-.86,2.24,4.82,7.4,8.95,6.2h0Z"/>
    <line class="st1" x1="26.93" y1="314.74" x2="21.59" y2="310.58"/>
    <line class="st2" x1="29.69" y1="295.88" x2="25.73" y2="290.72"/>
    <path class="st0" d="M26.93,292.27c.13-1.45-.37-2.9-1.38-3.96-1.04-1.14-6.78-4.29-7.57-2.24-.86,2.24,4.82,7.4,8.95,6.19Z"/>
    <line class="st1" x1="26.93" y1="292.27" x2="21.59" y2="288.1"/>
    <line class="st2" x1="29.69" y1="269.5" x2="25.73" y2="264.34"/>
    <path class="st0" d="M26.93,265.88c.13-1.45-.37-2.9-1.38-3.96-1.04-1.14-6.78-4.29-7.57-2.24-.86,2.24,4.82,7.4,8.95,6.19Z"/>
    <line class="st1" x1="26.93" y1="265.88" x2="21.59" y2="261.72"/>
    <line class="st2" x1="29.69" y1="251.94" x2="25.73" y2="246.77"/>
    <path class="st0" d="M26.93,248.33c.13-1.46-.37-2.91-1.38-3.96-1.04-1.14-6.78-4.29-7.57-2.24-.86,2.24,4.82,7.4,8.95,6.2Z"/>
    <line class="st1" x1="26.93" y1="248.33" x2="21.59" y2="244.16"/>
    <line class="st2" x1="29.69" y1="234.3" x2="25.73" y2="229.14"/>
    <path class="st0" d="M26.93,230.68c.13-1.45-.37-2.9-1.38-3.96-1.04-1.14-6.78-4.29-7.57-2.24-.86,2.24,4.82,7.4,8.95,6.19Z"/>
    <line class="st1" x1="26.93" y1="230.68" x2="21.59" y2="226.52"/>
    <line class="st2" x1="29.6" y1="325.22" x2="33.56" y2="320.06"/>
    <path class="st0" d="M32.36,321.59c-.13-1.46.39-2.91,1.41-3.96,1.04-1.14,6.78-4.29,7.57-2.24.83,2.26-4.85,7.42-8.98,6.2h0Z"/>
    <line class="st1" x1="32.36" y1="321.6" x2="38.03" y2="317.21"/>
    <line class="st2" x1="29.6" y1="289.48" x2="33.56" y2="284.31"/>
    <path class="st0" d="M32.36,285.86c-.13-1.46.39-2.91,1.41-3.96,1.04-1.14,6.78-4.29,7.57-2.24.83,2.24-4.85,7.4-8.98,6.2h0Z"/>
    <line class="st1" x1="32.36" y1="285.86" x2="38.03" y2="281.48"/>
    <line class="st2" x1="29.6" y1="271.84" x2="33.56" y2="266.67"/>
    <path class="st0" d="M32.36,268.23c-.13-1.46.39-2.91,1.41-3.96,1.04-1.14,6.78-4.29,7.57-2.24.83,2.24-4.85,7.38-8.98,6.2Z"/>
    <line class="st1" x1="32.36" y1="268.23" x2="38.03" y2="263.84"/>
    <line class="st2" x1="29.6" y1="248.52" x2="33.56" y2="243.36"/>
    <path class="st0" d="M32.36,244.91c-.13-1.46.39-2.91,1.41-3.96,1.04-1.14,6.78-4.29,7.57-2.24.83,2.24-4.85,7.42-8.98,6.19Z"/>
    <line class="st1" x1="32.36" y1="244.91" x2="38.03" y2="240.52"/>
    <line class="st2" x1="29.6" y1="230.2" x2="33.56" y2="225.03"/>
    <path class="st0" d="M32.36,226.58c-.13-1.46.39-2.91,1.41-3.96,1.04-1.14,6.78-4.29,7.57-2.24.83,2.24-4.85,7.42-8.98,6.2h0Z"/>
    <line class="st1" x1="32.36" y1="226.58" x2="38.03" y2="222.19"/>
    <path class="st0" d="M29.37,218.45c-.13-1.46.39-2.91,1.41-3.96.99-1.14,6.75-4.32,7.54-2.21.86,2.21-4.82,7.37-8.95,6.16Z"/>
    <line class="st1" x1="29.37" y1="218.45" x2="35.03" y2="214.06"/>
    <path class="st0" d="M29.65,218.69c-1.46-.02-2.85-.67-3.79-1.78-1.02-1.15-3.53-7.2-1.41-7.76,2.29-.63,6.83,5.56,5.2,9.54Z"/>
    <line class="st1" x1="29.64" y1="218.69" x2="25.88" y2="212.59"/>
    <polygon class="st7" points="34.51 367.35 21.85 367.35 20.27 335.37 36.09 335.37 34.51 367.35"/>
  </g>
  <g id="freepik--Device--inject-21">
    <rect class="st5" x="439.5" y="196.9" width="50.01" height="37.72"/>
    <rect class="st5" x="442.31" y="199.31" width="44.4" height="32.9"/>
    <rect class="st5" x="459.51" y="234.68" width="8.22" height="13.84"/>
    <rect class="st5" x="448.83" y="248.69" width="29.6" height="30.56"/>
    <rect class="st5" x="472.97" y="248.69" width="5.45" height="30.56"/>
    <polygon class="st5" points="463.9 291.3 434.42 291.3 448.59 279.3 478.08 279.3 463.9 291.3"/>
    <rect class="st5" x="434.42" y="291.3" width="29.48" height="76.65"/>
    <polygon class="st5" points="478.4 367.94 463.82 367.94 463.82 291.3 478.4 278.96 478.4 367.94"/>
  </g>
  <g id="freepik--Graphics--inject-21">
    <path class="st5" d="M350.56,191.79l4.48,1.02,1.04-4.55-4.31-.99v-.38c0-1.38-.28-2.76-.82-4.03l3.53-2.79-2.91-3.65-3.34,2.67c-1.17-1.02-2.56-1.75-4.05-2.15v-4.36h-4.67v4.18c-1.54.3-2.98.96-4.23,1.9l-3.38-2.69-2.91,3.65,3.3,2.63c-.7,1.38-1.07,2.91-1.1,4.46l-4.3.98,1.04,4.55,4.23-.97c.64,1.36,1.58,2.57,2.74,3.53l-1.97,4.1,4.23,2.02,1.95-4.03c1.43.35,2.93.39,4.38.11l2.01,4.17,4.23-2.02-2.03-4.05c1.18-.89,2.16-2.02,2.88-3.32h0ZM336.89,186.9c0-2.53,2.04-4.58,4.58-4.59,2.53,0,4.58,2.04,4.59,4.58,0,2.53-2.05,4.58-4.58,4.59h0c-2.53,0-4.58-2.04-4.58-4.58h0Z"/>
    <path class="st5" d="M328.64,173.39l4.48,1.02,1.04-4.56-4.31-.98v-.39c0-1.38-.28-2.75-.82-4.02l3.53-2.82-2.91-3.65-3.34,2.67c-1.17-1.02-2.56-1.76-4.05-2.16v-4.35h-4.67v4.18c-1.54.3-2.98.95-4.23,1.9l-3.38-2.69-2.91,3.65,3.3,2.63c-.7,1.38-1.07,2.91-1.1,4.46l-4.3.98,1.04,4.56,4.23-.97c.64,1.36,1.57,2.56,2.73,3.53l-1.95,4.17,4.23,2.02,1.94-4.03c.8.2,1.61.3,2.43.3.66,0,1.31-.06,1.95-.19l2.02,4.18,4.23-2.03-1.99-4.09c1.16-.9,2.12-2.03,2.82-3.32h0ZM314.98,168.45c0-2.53,2.05-4.58,4.58-4.58s4.58,2.05,4.58,4.58-2.05,4.58-4.58,4.58c-2.51-.01-4.54-2.04-4.56-4.55l-.02-.04Z"/>
    <path class="st5" d="M159.99,201l1.97-2.16-2.19-2-1.9,2.07-.2-.13c-.76-.44-1.61-.71-2.48-.81l-.44-2.82-2.93.47.42,2.68c-.93.32-1.77.86-2.46,1.57l-2.4-1.37-1.47,2.58,2.31,1.31c-.32.94-.42,1.95-.28,2.94l-2.55,1.02,1.11,2.76,2.49-.99c.54.82,1.27,1.5,2.12,2l-.81,2.69,2.82.86.8-2.65c.96.08,1.92-.06,2.82-.39l1.64,2.38,2.44-1.69-1.61-2.34c.35-.37.66-.8.92-1.24.2-.36.37-.75.51-1.14l2.94.2.2-2.96-2.82-.2c-.13-.93-.45-1.82-.95-2.62h0ZM152.98,207.01c-1.4-.8-1.88-2.57-1.09-3.97s2.57-1.88,3.97-1.09,1.88,2.57,1.09,3.97h0c-.78,1.4-2.55,1.9-3.96,1.11,0,0-.01,0-.01,0v-.02h0Z"/>
    <path class="st5" d="M142.93,207.35l1.98-2.12-2.19-2.01-1.9,2.01-.2-.13c-.77-.43-1.61-.71-2.48-.81l-.44-2.82-2.93.46.42,2.69c-.93.33-1.77.87-2.46,1.57l-2.4-1.38-1.47,2.58,2.31,1.32c-.32.94-.42,1.95-.28,2.94l-2.55,1.02,1.11,2.76,2.49-.99c.54.82,1.27,1.51,2.12,2.01l-.81,2.68,2.82.86.8-2.65c.96.08,1.92-.06,2.82-.39l1.64,2.38,2.44-1.69-1.61-2.34c.35-.37.66-.79.92-1.24.2-.37.38-.75.51-1.14l2.94.2.2-2.92-2.86-.2c-.12-.93-.43-1.83-.92-2.62h0ZM135.93,213.36c-1.4-.8-1.88-2.57-1.09-3.97s2.57-1.88,3.97-1.09c1.4.8,1.88,2.57,1.09,3.96-.8,1.4-2.58,1.88-3.98,1.08h0s0,.01,0,.01Z"/>
    <path class="st5" d="M393.65,201l1.98-2.12-2.19-2-1.9,2.07-.21-.13c-.76-.44-1.6-.71-2.48-.81l-.44-2.82-2.93.47.42,2.68c-.93.33-1.78.87-2.47,1.57l-2.4-1.37-1.47,2.58,2.31,1.31c-.32.94-.42,1.95-.28,2.94l-2.55,1.02,1.1,2.76,2.5-.99c.54.82,1.27,1.51,2.12,2l-.81,2.69,2.82.86.8-2.65c.96.08,1.92-.06,2.82-.39l1.64,2.38,2.44-1.69-1.61-2.34c.35-.38.66-.8.92-1.24.2-.37.37-.75.51-1.14l2.94.2.2-2.96-2.86-.2c-.11-.94-.43-1.85-.92-2.66h0ZM386.65,207.01c-1.39-.8-1.88-2.57-1.08-3.96s2.57-1.88,3.96-1.08,1.88,2.57,1.08,3.96c-.79,1.4-2.57,1.9-3.96,1.11h0v-.02Z"/>
    <path class="st5" d="M376.59,207.35l1.97-2.12-2.19-2.01-1.9,2.01-.21-.13c-.76-.43-1.6-.71-2.48-.81l-.44-2.82-2.93.46.42,2.69c-.93.33-1.78.87-2.47,1.57l-2.4-1.38-1.47,2.61,2.33,1.35c-.32.94-.42,1.95-.28,2.94l-2.55,1.02,1.1,2.76,2.5-.99c.54.82,1.27,1.51,2.12,2.01l-.81,2.68,2.82.86.8-2.65c.96.08,1.92-.06,2.82-.39l1.64,2.38,2.44-1.69-1.61-2.34c.35-.37.66-.79.92-1.24.2-.37.37-.75.51-1.14l2.94.2.2-2.95-2.82-.2c-.13-.94-.45-1.84-.95-2.64h0ZM369.59,213.36c-1.4-.8-1.88-2.57-1.09-3.97s2.57-1.88,3.97-1.09,1.88,2.57,1.09,3.97h0c-.8,1.38-2.58,1.86-3.97,1.06h0v.02Z"/>
    <line class="st6" x1="155.15" y1="168.8" x2="133.06" y2="171.24"/>
    <line class="st3" x1="161.91" y1="168.05" x2="150.19" y2="169.35"/>
    <circle class="st4" cx="178.37" cy="166.24" r="16.56"/>
    <path class="st5" d="M179.85,179.28c-7.21.79-13.69-4.41-14.48-11.61s4.41-13.69,11.61-14.48c7.21-.79,13.69,4.4,14.48,11.61.8,7.21-4.41,13.7-11.61,14.5h0Z"/>
    <rect class="st5" x="237.04" y="129.71" width="26.92" height="35.2"/>
    <path class="st7" d="M241.31,131.67h0c-.45,0-.81-.37-.81-.82v-3.07c0-.45.35-.82.8-.83h.01c.45,0,.81.35.82.8h0v3.07c0,.45-.35.83-.8.83h-.01Z"/>
    <path class="st7" d="M247.43,131.67h0c-.45,0-.82-.37-.82-.82h0v-3.07c0-.45.35-.82.8-.83h.02c.45,0,.81.35.82.8v3.09c0,.45-.37.82-.82.82h0Z"/>
    <path class="st7" d="M253.56,131.67h0c-.45,0-.82-.37-.82-.82h0v-3.07c0-.45.35-.82.8-.83h.02c.44,0,.8.35.81.8h0v3.08c.01.44-.34.82-.79.83h-.02Z"/>
    <path class="st7" d="M259.68,131.67h0c-.45,0-.82-.37-.82-.82h0v-3.07c0-.45.35-.82.8-.83h.02c.45,0,.81.35.82.8h0v3.07c0,.45-.35.83-.8.83h-.01Z"/>
    <line class="st5" x1="240.54" y1="139.43" x2="260.35" y2="139.43"/>
    <line class="st5" x1="240.54" y1="144.53" x2="260.35" y2="144.53"/>
    <line class="st5" x1="250.54" y1="149.64" x2="260.35" y2="149.64"/>
    <line class="st5" x1="250.54" y1="154.74" x2="260.35" y2="154.74"/>
    <polyline class="st2" points="239.92 151.88 244.62 156.17 248.1 146.57"/>
  </g>
  <g id="freepik--Machine--inject-21">
    <rect class="st0" x="99.53" y="274.3" width="294.11" height="16.7" rx="8.35" ry="8.35"/>
    <rect class="st7" x="102.63" y="276.94" width="287.92" height="11.4" rx="5.7" ry="5.7"/>
    <circle class="st0" cx="113.51" cy="282.58" r="5.34"/>
    <path class="st0" d="M115.6,282.58c0-1.17-.94-2.12-2.12-2.12s-2.12.94-2.12,2.12.94,2.12,2.12,2.12,2.12-.94,2.12-2.12Z"/>
    <circle class="st0" cx="140.26" cy="282.58" r="5.34"/>
    <path class="st0" d="M142.34,282.58c0-1.17-.94-2.12-2.12-2.12s-2.12.94-2.12,2.12.94,2.12,2.12,2.12,2.12-.94,2.12-2.12Z"/>
    <circle class="st0" cx="167" cy="282.58" r="5.34"/>
    <path class="st0" d="M169.08,282.58c0-1.17-.94-2.12-2.12-2.12s-2.12.94-2.12,2.12.94,2.12,2.12,2.12,2.12-.94,2.12-2.12Z"/>
    <circle class="st0" cx="193.74" cy="282.58" r="5.34"/>
    <path class="st0" d="M195.83,282.58c0-1.17-.94-2.12-2.12-2.12s-2.12.94-2.12,2.12.94,2.12,2.12,2.12,2.12-.94,2.12-2.12Z"/>
    <circle class="st0" cx="297.56" cy="282.58" r="5.34"/>
    <path class="st0" d="M299.65,282.58c0-1.17-.94-2.12-2.12-2.12s-2.12.94-2.12,2.12.94,2.12,2.12,2.12,2.12-.94,2.12-2.12Z"/>
    <circle class="st0" cx="324.31" cy="282.58" r="5.34"/>
    <path class="st0" d="M326.39,282.58c0-1.17-.94-2.12-2.12-2.12s-2.12.94-2.12,2.12.94,2.12,2.12,2.12,2.12-.94,2.12-2.12Z"/>
    <circle class="st0" cx="351.05" cy="282.58" r="5.34"/>
    <path class="st0" d="M353.14,282.58c0-1.17-.94-2.12-2.12-2.12s-2.12.94-2.12,2.12.94,2.12,2.12,2.12,2.12-.94,2.12-2.12Z"/>
    <circle class="st0" cx="377.8" cy="282.58" r="5.34"/>
    <path class="st0" d="M379.88,282.58c0-1.17-.94-2.12-2.12-2.12s-2.12.94-2.12,2.12.94,2.12,2.12,2.12h.04c1.16-.02,2.08-.96,2.08-2.12Z"/>
    <path class="st7" d="M321.14,290.99c13.44-41.18-9.04-85.45-50.22-98.89-41.18-13.44-85.45,9.04-98.89,50.22-5.16,15.81-5.16,32.86,0,48.67h149.1Z"/>
    <path class="st0" d="M176.98,283.25h139.22c7.79,0,14.1,6.31,14.1,14.1v14.63h-167.44v-14.62c0-7.79,6.3-14.1,14.1-14.11h.02Z"/>
    <path class="st0" d="M146,308.12h201.16c6.76,0,12.24,5.48,12.24,12.24v47.44h-225.66v-47.44c0-6.76,5.48-12.24,12.24-12.24h0Z"/>
    <rect class="st0" x="147.49" y="315.26" width="6.92" height="7.31"/>
    <rect class="st0" x="159.41" y="315.26" width="6.92" height="7.31"/>
    <rect class="st0" x="329.76" y="315.26" width="6.92" height="7.31"/>
    <rect class="st0" x="341.67" y="315.26" width="6.92" height="7.31"/>
    <line class="st5" x1="166.97" y1="330.64" x2="359.37" y2="330.64"/>
    <line class="st5" x1="134.03" y1="330.64" x2="161.84" y2="330.64"/>
    <polyline class="st7" points="140.19 367.18 147.49 357.95 205.17 357.95 205.17 367.56"/>
    <polyline class="st7" points="353.21 367.18 345.91 357.95 288.23 357.95 288.23 367.56"/>
    <path class="st0" d="M228.63,349.22c-.58-.54-1.14-1.11-1.66-1.7"/>
    <path class="st0" d="M224.18,343.72c-2.38-3.95-3.64-8.47-3.63-13.08h50.77c0,14.02-11.37,25.39-25.39,25.39h0c-4.82,0-9.56-1.37-13.62-3.96"/>
    <circle class="st0" cx="246.58" cy="266.63" r="46.92"/>
    <line class="st5" x1="225.71" y1="287.21" x2="279.56" y2="233.36"/>
    <line class="st5" x1="220.46" y1="292.46" x2="223.16" y2="289.75"/>
    <line class="st5" x1="213.61" y1="299.3" x2="217.92" y2="295"/>
    <circle class="st7" cx="246.58" cy="266.65" r="15.96"/>
  </g>
  <g id="freepik--Floor--inject-21">
    <line class="st5" x1="490.07" y1="367.8" x2="500" y2="367.8"/>
    <line class="st5" x1="7.77" y1="367.8" x2="482.27" y2="367.8"/>
  </g>
  <g id="freepik--Text--inject-21">
    <path class="st11" d="M315.81,253.45l2.96-10.67-5.39,1.41c-6.9-20.53-22.85-36.75-43.26-43.98l-7.62-8.57-1.97,5.93c-25.08-5.07-50.93,3.87-67.51,23.36l-9.92,3.59,4.44,3.74c-7.45,11.41-11.4,24.74-11.39,38.36h14.91c-.01-10.11,2.75-20.02,7.98-28.67l4.64,3.91,2.33-13.11c12.69-13.65,31.39-20.01,49.76-16.92l-1.78,5.32,12.23-2.51c15.23,5.75,27.18,17.91,32.66,33.24l-6.18,1.59,18.84,19.22,4.19-15.04h.11c-.02-.07-.04-.13-.04-.2h0Z"/>
    <path class="st10" d="M180.73,257.21c.17-1.3,1.04-1.79,2.32-1.62l4.23.55c1.28.17,1.98.87,1.81,2.16l-.25,1.96-8.36-1.09.25-1.96h0ZM188.24,258.21c.08-.66-.29-1.04-1.05-1.14l-4.29-.56c-.77-.1-1.23.17-1.32.85l-.13,1,6.66.87.13-1.02h0Z"/>
    <path class="st10" d="M185.49,251.77l.83.18-.42,2.01,2.93.61.51-2.48.84.18-.71,3.39-8.24-1.72.71-3.39.83.18-.51,2.47,2.82.59.42-2.02Z"/>
    <path class="st10" d="M185.2,246.34l.23.06-.25.85-.27-.08c-.71-.2-1.23-.05-1.41.59s.16,1.05.87,1.26c1.81.52,2.77-2.12,5.05-1.49,1.22.35,1.85,1.17,1.49,2.4s-1.32,1.59-2.55,1.23l-.46-.13.24-.85.51.15c.71.21,1.24.04,1.41-.61s-.16-1.07-.88-1.28c-1.81-.51-2.76,2.12-5.03,1.49-1.25-.36-1.85-1.16-1.51-2.38s1.33-1.57,2.55-1.22h0Z"/>
    <path class="st10" d="M183.96,243.8l7.95,2.76-.31.88-7.95-2.76.31-.88Z"/>
    <path class="st10" d="M187.68,239.86l.67.28-.34.83-.71-.3c-.71-.28-1.24-.18-1.5.46s.05,1.09.75,1.37l4.12,1.69c.71.28,1.24.17,1.49-.46s-.05-1.09-.75-1.37l-1.56-.64-.33.8-.78-.32.66-1.63,2.3.94c1.18.49,1.73,1.36,1.23,2.57s-1.49,1.41-2.67.94l-4.03-1.65c-1.18-.49-1.73-1.36-1.24-2.55s1.49-1.44,2.67-.96h0Z"/>
    <path class="st10" d="M194.26,240.89l-.37.75-7.52-3.8.54-1.06,6.31,1.01-5.43-2.74.37-.74,7.52,3.79-.44.87-7.05-1.16,6.08,3.07h0Z"/>
    <path class="st10" d="M216.17,206.96c1.16-.6,2.06-.17,2.66.99l1.93,3.77c.59,1.14.42,2.12-.75,2.72l-1.76.91-3.84-7.49,1.76-.9ZM219.62,213.69c.6-.31.71-.83.34-1.52l-1.98-3.85c-.35-.71-.83-.91-1.45-.6l-.9.47,3.07,5.97.91-.47h0Z"/>
    <path class="st10" d="M223.3,207.79l.33.78-1.9.8,1.17,2.76,2.32-.98.34.78-3.19,1.35-3.28-7.76,3.19-1.35.33.79-2.33.98,1.12,2.65,1.89-.8h0Z"/>
    <path class="st10" d="M224.28,203.45l3.62,6.52-1.02-7.38.82-.28,1.17,8.46-1.31.44-4.17-7.49.9-.27h0Z"/>
    <path class="st10" d="M232.63,204.89l.2.82-2,.49.71,2.91,2.45-.61.2.83-3.34.83-2.03-8.17,3.36-.83.2.83-2.45.61.71,2.79,1.98-.49Z"/>
    <path class="st10" d="M234.94,209.19l-1.45-8.29.92-.16,1.3,7.45,2.37-.41.14.84-3.29.57Z"/>
    <path class="st10" d="M238.07,202.19c-.13-1.28.42-2.17,1.7-2.3s2.01.63,2.12,1.91l.43,4.34c.13,1.27-.42,2.17-1.71,2.3s-2-.65-2.12-1.92l-.42-4.33h0ZM239.43,206.48c.07.77.44,1.18,1.11,1.11s.94-.54.87-1.3l-.44-4.43c-.07-.75-.43-1.18-1.11-1.11s-.94.56-.87,1.31l.44,4.43Z"/>
    <path class="st10" d="M244.93,199.66c1.32,0,1.9.74,1.93,2.01v1.02c0,1.33-.58,2.04-1.91,2.07h-.83l.08,3.32h-.94l-.2-8.42h1.87ZM244.93,203.89c.71,0,1.02-.35,1.01-1.16v-1.11c0-.77-.3-1.15-.99-1.14h-.9l.08,3.41h.8Z"/>
    <path class="st10" d="M282.1,220.35l4.72-5.92-1.19-.97.54-.66,3.16,2.52-.53.67-1.21-.97-4.72,5.92-.76-.59h0Z"/>
    <path class="st10" d="M289.86,220.82l-.57.62-1.54-1.4-2.03,2.2,1.85,1.71-.58.63-2.55-2.35,5.71-6.18,2.55,2.35-.58.63-1.85-1.71-1.95,2.12,1.54,1.4h0Z"/>
    <path class="st10" d="M294.67,223.38l-.16.16-.61-.65.2-.19c.55-.52.71-1.04.22-1.52s-.98-.4-1.52.11c-1.41,1.29.42,3.48-1.31,5.1-.93.87-1.95.99-2.82.05s-.71-1.95.25-2.82l.35-.33.6.64-.39.36c-.55.52-.66,1.05-.2,1.54s1,.42,1.55-.1c1.41-1.28-.42-3.46,1.31-5.08.94-.89,1.95-.99,2.82-.08s.65,1.95-.28,2.81h0Z"/>
    <path class="st10" d="M291.21,229.21l5.89-4.75-.97-1.21.66-.54,2.54,3.15-.66.54-.98-1.21-5.88,4.75-.59-.73Z"/>
    <path class="st10" d="M300.44,227.43l-6.81,4.94-.55-.76,6.81-4.94.55.76Z"/>
    <path class="st10" d="M294.59,233.76l-.45-.71,7.05-4.55.65,1.01-4.08,4.94,5.13-3.29.44.71-7.05,4.55-.52-.83,4.56-5.49-5.73,3.65h0Z"/>
    <path class="st10" d="M304.07,237.35l-.64.34-.42-.78.71-.37c.67-.35.93-.83.61-1.41s-.87-.66-1.54-.3l-3.93,2.12c-.66.35-.92.85-.6,1.41s.87.66,1.53.3l1.49-.79-.41-.77.74-.39.83,1.55-2.19,1.16c-1.12.61-2.15.47-2.76-.71s-.15-2.06.98-2.66l3.84-2.06c1.13-.6,2.15-.47,2.76.67s.13,2.09-.99,2.69h0Z"/>
  </g>
  <g id="freepik--Box--inject-21">
    <rect class="st8" x="344.56" y="247.05" width="31.49" height="27.41"/>
    <rect class="st8" x="358.36" y="247.05" width="17.69" height="27.41"/>
    <line class="st5" x1="338.33" y1="258" x2="342.52" y2="258"/>
    <line class="st5" x1="339.28" y1="243.15" x2="342.33" y2="245.05"/>
    <line class="st5" x1="349.95" y1="239.15" x2="351.47" y2="243.15"/>
    <line class="st5" x1="382.5" y1="258" x2="378.31" y2="258"/>
    <line class="st5" x1="381.54" y1="243.15" x2="378.5" y2="245.05"/>
    <line class="st5" x1="370.88" y1="239.15" x2="369.36" y2="243.15"/>
    <line class="st5" x1="360.41" y1="242.96" x2="360.41" y2="237.82"/>
  </g>
  <g id="freepik--Bulb--inject-21">
    <path class="st8" d="M132.01,268.56h6.85c2.48-2.08,2.86-6.48,4.94-9.07h-.06c3.19-4.56,2.08-10.85-2.48-14.03-4.56-3.19-10.85-2.08-14.03,2.48-1.19,1.7-1.83,3.73-1.82,5.8,0,2.76,1.48,5.15,2.82,7.55s1.83,5.6,3.79,7.27h0Z"/>
    <rect class="st10" x="131.96" y="269.4" width="6.8" height="1.43"/>
    <path class="st10" d="M131.96,271.07h6.8v.11c0,.73-.59,1.32-1.32,1.32h-4.13c-.73,0-1.32-.59-1.32-1.32v-.11h-.03Z"/>
    <line class="st5" x1="119.79" y1="253.88" x2="123.73" y2="253.88"/>
    <line class="st5" x1="121.22" y1="242.91" x2="125.16" y2="246.13"/>
    <line class="st5" x1="130.29" y1="238.26" x2="131.6" y2="241.83"/>
    <line class="st5" x1="151.88" y1="253.88" x2="147.95" y2="253.88"/>
    <line class="st5" x1="150.45" y1="242.91" x2="146.52" y2="246.13"/>
    <line class="st5" x1="141.38" y1="238.26" x2="140.07" y2="241.83"/>
  </g>
  <g id="freepik--character-2--inject-21">
    <polygon class="st7" points="412.94 280.43 416.51 365.77 422.88 365.77 426.53 296.99 428.31 296.99 435.1 365.77 440.96 365.77 442.49 279.92 412.94 280.43"/>
    <rect class="st8" x="415.48" y="225.67" width="23.94" height="54.76"/>
    <polygon class="st0" points="421.71 224.76 421.1 314.41 408.58 314.41 408.58 226.4 421.71 224.76"/>
    <polygon class="st0" points="421.51 254.71 421.71 224.76 419.27 225.06 416.59 234.19 420.07 237.28 416.79 240.96 421.51 254.71"/>
    <path class="st0" d="M408.58,226.39l-16.42,29.34s-.2,3.29,2.26,4.51,4.31,1.03,4.94.62,9.87-6.98,9.87-6.98l-.65-27.49Z"/>
    <polygon class="st0" points="421.51 221.68 421.51 227.22 424.79 232.55 430.12 226.4 430.12 219.84 421.51 221.68"/>
    <path class="st0" d="M422.99,200.85h4.23c3.08,0,5.58,2.5,5.58,5.58v10.08c0,3.92-3.18,7.1-7.1,7.1h-1.18c-3.92,0-7.11-3.17-7.12-7.09v-10.09c0-3.08,2.5-5.58,5.58-5.58h0Z"/>
    <polyline class="st0" points="421.55 211.56 421.55 217.09 423.67 217.09"/>
    <path class="st0" d="M420.87,218.84h2.87c.79,0,1.57-.24,2.21-.71l.23-.17"/>
    <path class="st0" d="M418.52,209.59c.69-.68,1.81-.68,2.5,0"/>
    <path class="st0" d="M423.84,209.74c1.01-.85,2.48-.85,3.49,0"/>
    <path class="st10" d="M420.11,211.83c0,.65-.24,1.17-.54,1.17s-.53-.52-.53-1.17.24-1.18.53-1.18.54.53.54,1.18Z"/>
    <path class="st10" d="M426.02,211.83c0,.65-.24,1.17-.53,1.17s-.53-.52-.53-1.17.23-1.18.53-1.18.53.53.53,1.18Z"/>
    <path class="st0" d="M432.79,210.91s1.03-2.87,2.05-.82c.83,1.85.67,4.01-.42,5.72-.3.47-.92.62-1.4.32-.09-.06-.18-.13-.24-.21v-5.01Z"/>
    <path class="st7" d="M432.79,212.87v-5.96c0-3.34-2.7-6.05-6.04-6.06h-3.29c-1.69,0-3.31.71-4.45,1.97,1.34.46,2.74.76,4.15.91,1.41,0,5.54-.42,5.54-.42,0,0-1.23,3.49.2,4.31.9.51,1.87.85,2.88,1.03v4.51l1.02-.3h0Z"/>
    <path class="st0" d="M430.12,225.17l.61,88.85h18.67s-1.85-43.9-1.85-44.52-2.05-6.35-2.05-6.35l.82-36.94-16.2-1.05Z"/>
    <polygon class="st0" points="431.97 237.28 436.28 234.81 433.61 225.39 430.12 225.17 430.33 254.93 436.08 240.76 431.97 237.28"/>
    <path class="st0" d="M426.84,254.51l.62,5.94,28.72,3.08s1.41-2.05,0-6.77c-1.41-4.72-9.87-30.58-9.87-30.58v25.44l1.03,2.05-20.5.83Z"/>
    <polygon class="st7" points="399.56 242.4 407.97 263.74 425.41 263.74 417.4 241.99 399.56 242.4"/>
    <polygon class="st0" points="405.42 242.23 406.58 244.12 412.44 244.12 411.63 242.16 405.42 242.23"/>
    <polygon class="st0" points="426.84 254.51 423.76 251.84 417.2 251.63 417.2 254.71 421.3 256.56 422.95 258.2 427.25 259.23 426.84 254.51"/>
    <polygon class="st0" points="416.42 363.26 406.44 367.8 423.38 367.8 422.82 363.09 416.42 363.26"/>
    <polygon class="st0" points="434.5 363.26 424.53 367.8 441.47 367.8 440.91 363.09 434.5 363.26"/>
  </g>
  <g id="freepik--character-1--inject-21">
    <polygon class="st0" points="95 244.01 103.02 258.72 117.92 260.63 118.49 265.21 94.43 265.6 91.18 256.04 95 244.01"/>
    <polygon class="st7" points="59.65 316.03 57.93 362.45 63.48 362.64 71.69 316.99 59.65 316.03"/>
    <polygon class="st7" points="74.94 317.75 77.81 362.45 84.3 362.64 87.93 316.22 74.94 317.75"/>
    <polygon class="st0" points="84.3 362.64 94.43 367.8 77.23 367.8 77.81 362.45 84.3 362.64"/>
    <polygon class="st0" points="64.43 362.64 74.55 367.8 57.36 367.8 57.93 362.45 64.43 362.64"/>
    <path class="st0" d="M86.02,314.31l11.65-.38s-5.54-33.62-5.54-40.12,1.34-21.01,1.34-21.01c0,0-6.69,20.63-7.05,30.18s-.39,31.33-.39,31.33Z"/>
    <path class="st0" d="M84.65,227.96s-2.86.57-10.32,9.17c-7.45,8.6-14.1,24.46-14.71,30.19s-5.54,49.67-5.54,49.67c0,0,13.95,1.91,21.59,2.3,4.92.2,9.84-.06,14.71-.77,0,0-1.88-32.09-1.5-37.83s5.15-22.35,5.73-27.5,2.48-13.95.38-17.96-10.34-7.26-10.34-7.26h0Z"/>
    <path class="st0" d="M109.07,216.79v-.09c.25-4.17.1-8.03.1-8.03,0,0,2.67-1.15.76-4.39s-5.73-4.23-10.89-4.59c0,0-8.6,2.12-9.36,5.92s-.19,16.22-.19,16.22l-1.53,5.73,7.83,5.54,2.12-4.94s6.11,1.34,8.98-1.91c.71-.8,1.2-2.28,1.55-4.05l1.53-.6-.9-4.81h0Z"/>
    <path class="st10" d="M107.18,216.15c0,.83-.25,1.49-.56,1.49s-.56-.67-.56-1.49.25-1.5.56-1.5.56.67.56,1.5Z"/>
    <path class="st5" d="M104.9,213.36c.73-.75,1.88-.89,2.76-.32"/>
    <path class="st7" d="M99.01,199.68s-8.6,2.12-9.36,5.92-.19,16.22-.19,16.22l2.87-1.15c-.2-1.74,0-3.5.57-5.15.95-2.67,2.12-.57,2.12-.57l.76,3.05.96-.19.19-3.63s1.53-.76,1.72-1.72-.58-3.81-.58-3.81c1.57.3,3.18.43,4.78.38,2.11-.01,4.21-.14,6.3-.38,0,0,2.67-1.15.76-4.39s-5.75-4.18-10.9-4.57h0Z"/>
    <polygon class="st0" points="86.21 225.09 99.01 234.26 97.86 239.04 83.34 227.96 86.21 225.09"/>
    <polygon class="st0" points="117.92 260.63 122.32 257.76 125.76 256.81 126.14 257.57 123.27 258.91 129.57 258.14 129.57 258.91 125.95 260.24 130.91 259.48 130.91 260.82 126.33 261.58 130.34 262.15 129.96 263.3 126.71 263.49 128.62 264.07 128.24 264.83 117.15 265.41 117.92 260.63"/>
    <path class="st0" d="M86.4,237.13s-7.83,1.53-7.83,7.64,13.56,25.6,14.1,25.79,25.6-4.39,25.6-4.39l-.38-5.54-20.6-.39-6.69-20.63s-1.34-2.64-4.2-2.48h0Z"/>
    <path class="st5" d="M103.32,222.71s2.31,1.89,4.55.94"/>
  </g>
</svg>